<?xml version="1.0" encoding="utf-8"?>
<!-- Generator: Adobe Illustrator 27.0.0, SVG Export Plug-In . SVG Version: 6.00 Build 0)  -->
<svg version="1.1" id="Layer_1" xmlns="http://www.w3.org/2000/svg" xmlns:xlink="http://www.w3.org/1999/xlink" x="0px" y="0px"
	 viewBox="0 0 800 800" style="enable-background:new 0 0 800 800;" xml:space="preserve">
<path d="M539.7,66.7H260.3C139,66.7,66.7,139,66.7,260.3v279c0,121.7,72.3,194,193.7,194h279C660.7,733.3,733,661,733,539.7V260.3
	C733.3,139,661,66.7,539.7,66.7z M400,529.3c-71.3,0-129.3-58-129.3-129.3s58-129.3,129.3-129.3s129.3,58,129.3,129.3
	S471.3,529.3,400,529.3z M597.3,229.3c-1.7,4-4,7.7-7,11c-3.3,3-7,5.3-11,7c-4,1.7-8.3,2.7-12.7,2.7c-9,0-17.3-3.3-23.7-9.7
	c-3-3.3-5.3-7-7-11c-1.7-4-2.7-8.3-2.7-12.7c0-4.3,1-8.7,2.7-12.7c1.7-4.3,4-7.7,7-11c7.7-7.7,19.3-11.3,30-9c2.3,0.3,4.3,1,6.3,2
	c2,0.7,4,1.7,6,3c1.7,1,3.3,2.7,5,4c3,3.3,5.3,6.7,7,11c1.7,4,2.7,8.3,2.7,12.7C600,221,599,225.3,597.3,229.3z"/>
</svg>
