<svg width="109" height="27" viewBox="0 0 109 27" fill="none" xmlns="http://www.w3.org/2000/svg">
<path d="M11.42 26.252C9.284 26.252 7.4 25.808 5.768 24.92C4.16 24.032 2.912 22.784 2.024 21.176C1.136 19.568 0.692 17.72 0.692 15.632C0.692 12.68 1.328 10.052 2.6 7.748C3.872 5.42 5.636 3.608 7.892 2.312C10.172 1.016 12.752 0.368 15.632 0.368C17.792 0.368 19.688 0.812 21.32 1.7C22.952 2.564 24.212 3.8 25.1 5.408C25.988 6.992 26.432 8.816 26.432 10.88C26.432 13.832 25.796 16.484 24.524 18.836C23.252 21.164 21.476 22.988 19.196 24.308C16.916 25.604 14.324 26.252 11.42 26.252ZM12.356 20.564C13.94 20.564 15.332 20.156 16.532 19.34C17.732 18.524 18.656 17.432 19.304 16.064C19.976 14.672 20.312 13.172 20.312 11.564C20.312 9.836 19.832 8.48 18.872 7.496C17.912 6.512 16.568 6.02 14.84 6.02C13.256 6.02 11.852 6.428 10.628 7.244C9.428 8.06 8.492 9.152 7.82 10.52C7.172 11.864 6.848 13.352 6.848 14.984C6.848 16.712 7.328 18.08 8.288 19.088C9.248 20.072 10.604 20.564 12.356 20.564ZM44.2208 21.536H34.7888L32.4848 26H26.0408L39.6488 0.727999H46.7768L51.4568 26H44.9408L44.2208 21.536ZM43.5008 16.856L42.0248 7.496L37.2008 16.856H43.5008ZM64.2838 26.252C61.5478 26.252 59.3158 25.664 57.5878 24.488C55.8838 23.288 55.0317 21.596 55.0317 19.412C55.0317 19.196 55.0557 18.872 55.1038 18.44H61.5118C61.4398 19.352 61.6558 20.072 62.1598 20.6C62.6638 21.128 63.4318 21.392 64.4638 21.392C65.3998 21.392 66.1318 21.188 66.6598 20.78C67.2118 20.372 67.4878 19.796 67.4878 19.052C67.4878 18.284 67.1398 17.66 66.4438 17.18C65.7718 16.7 64.7158 16.16 63.2758 15.56C61.8838 14.984 60.7438 14.444 59.8558 13.94C58.9918 13.412 58.2358 12.704 57.5878 11.816C56.9398 10.928 56.6158 9.812 56.6158 8.468C56.5918 6.812 56.9998 5.372 57.8398 4.148C58.6798 2.924 59.8438 1.988 61.3318 1.34C62.8198 0.691999 64.5238 0.368 66.4438 0.368C68.1718 0.368 69.7078 0.644 71.0518 1.196C72.3958 1.724 73.4398 2.504 74.1837 3.536C74.9278 4.544 75.2998 5.744 75.2998 7.136C75.2998 7.496 75.2878 7.76 75.2638 7.928H68.7118C68.7358 7.832 68.7478 7.688 68.7478 7.496C68.7478 6.824 68.5078 6.284 68.0278 5.876C67.5718 5.444 66.9358 5.228 66.1198 5.228C65.2558 5.228 64.5478 5.444 63.9958 5.876C63.4678 6.284 63.2038 6.848 63.2038 7.568C63.2038 8.288 63.5398 8.9 64.2118 9.404C64.8838 9.884 65.9278 10.448 67.3438 11.096C68.7598 11.744 69.9118 12.344 70.7998 12.896C71.7118 13.448 72.4918 14.192 73.1398 15.128C73.7878 16.04 74.1118 17.168 74.1118 18.512C74.1118 20 73.7158 21.332 72.9238 22.508C72.1318 23.684 70.9918 24.608 69.5038 25.28C68.0158 25.928 66.2758 26.252 64.2838 26.252ZM87.2543 0.727999L82.7903 26H76.6343L81.0983 0.727999H87.2543ZM97.2955 26.252C94.5595 26.252 92.3275 25.664 90.5995 24.488C88.8955 23.288 88.0435 21.596 88.0435 19.412C88.0435 19.196 88.0675 18.872 88.1155 18.44H94.5235C94.4515 19.352 94.6675 20.072 95.1715 20.6C95.6755 21.128 96.4435 21.392 97.4755 21.392C98.4115 21.392 99.1435 21.188 99.6715 20.78C100.223 20.372 100.499 19.796 100.499 19.052C100.499 18.284 100.151 17.66 99.4555 17.18C98.7835 16.7 97.7275 16.16 96.2875 15.56C94.8955 14.984 93.7555 14.444 92.8675 13.94C92.0035 13.412 91.2475 12.704 90.5995 11.816C89.9515 10.928 89.6275 9.812 89.6275 8.468C89.6035 6.812 90.0115 5.372 90.8515 4.148C91.6915 2.924 92.8555 1.988 94.3435 1.34C95.8315 0.691999 97.5355 0.368 99.4555 0.368C101.183 0.368 102.719 0.644 104.063 1.196C105.407 1.724 106.451 2.504 107.195 3.536C107.939 4.544 108.311 5.744 108.311 7.136C108.311 7.496 108.299 7.76 108.275 7.928H101.723C101.747 7.832 101.759 7.688 101.759 7.496C101.759 6.824 101.519 6.284 101.039 5.876C100.583 5.444 99.9475 5.228 99.1315 5.228C98.2675 5.228 97.5595 5.444 97.0075 5.876C96.4795 6.284 96.2155 6.848 96.2155 7.568C96.2155 8.288 96.5515 8.9 97.2235 9.404C97.8955 9.884 98.9395 10.448 100.355 11.096C101.771 11.744 102.923 12.344 103.811 12.896C104.723 13.448 105.503 14.192 106.151 15.128C106.799 16.04 107.123 17.168 107.123 18.512C107.123 20 106.727 21.332 105.935 22.508C105.143 23.684 104.003 24.608 102.515 25.28C101.027 25.928 99.2875 26.252 97.2955 26.252Z" fill="white"/>
</svg>
